<svg width="822" height="332" viewBox="0 0 822 332" fill="none" xmlns="http://www.w3.org/2000/svg">
<path d="M583.629 0.228516C584.028 13.6152 594.806 24.3923 608.191 24.79V305.897C594.55 306.303 583.616 317.489 583.616 331.229C583.616 331.487 583.621 331.743 583.629 331.998H33.793V331.997C33.7928 313.335 18.6646 298.206 0.00390625 298.206C0.00260412 298.206 0.00130209 298.206 0 298.206V287.454C0.00390532 287.454 0.00781172 287.455 0.0117188 287.455C3.40446 287.455 6.15506 284.705 6.15527 281.312C6.15527 277.918 3.40459 275.167 0.0117188 275.167C0.00781245 275.167 0.00390459 275.167 0 275.167V265.95C0.00390532 265.95 0.00781172 265.951 0.0117188 265.951C3.40446 265.951 6.15506 263.201 6.15527 259.808C6.15527 256.414 3.40459 253.663 0.0117188 253.663C0.00781245 253.663 0.00390459 253.663 0 253.663V244.446C0.00390533 244.446 0.00781171 244.447 0.0117188 244.447C3.40447 244.447 6.15507 241.697 6.15527 238.304C6.15527 234.911 3.40459 232.159 0.0117188 232.159C0.00781246 232.159 0.00390458 232.159 0 232.159V222.944C0.0039053 222.944 0.00781175 222.945 0.0117188 222.945C3.40445 222.945 6.15504 220.195 6.15527 216.802C6.15527 213.409 3.40459 210.657 0.0117188 210.657C0.00781242 210.657 0.00390462 210.657 0 210.657V199.903C0.0013021 199.903 0.00260411 199.904 0.00390625 199.904C18.6646 199.904 33.7927 184.776 33.793 166.113C33.793 147.451 18.6647 132.321 0.00390625 132.321C0.00260413 132.321 0.00130209 132.321 0 132.321V120.033C0.00390514 120.033 0.0078119 120.034 0.0117188 120.034C3.40459 120.034 6.15527 117.283 6.15527 113.89C6.15512 110.497 3.4045 107.746 0.0117188 107.746C0.00781227 107.746 0.00390478 107.746 0 107.746V98.5293C0.00390514 98.5293 0.0078119 98.5303 0.0117188 98.5303C3.40459 98.5303 6.15527 95.7789 6.15527 92.3857C6.15511 88.9927 3.40449 86.2422 0.0117188 86.2422C0.00781227 86.2422 0.00390477 86.2422 0 86.2422V77.0254C0.00390515 77.0254 0.00781189 77.0264 0.0117188 77.0264C3.40459 77.0264 6.15527 74.275 6.15527 70.8818C6.1551 67.4888 3.40449 64.7383 0.0117188 64.7383C0.00781228 64.7383 0.00390476 64.7383 0 64.7383V55.5195C0.0039052 55.5195 0.00781184 55.5205 0.0117188 55.5205C3.40459 55.5205 6.15527 52.7691 6.15527 49.376C6.15506 45.983 3.40446 43.2324 0.0117188 43.2324C0.00781233 43.2324 0.00390471 43.2324 0 43.2324V34.0166C0.00130211 34.0166 0.0026041 34.0176 0.00390625 34.0176C18.664 34.0176 33.7918 18.89 33.793 0.228516H583.629Z" fill="#191515"/>
<path d="M787.868 0.230469C787.868 18.8917 802.994 34.0188 821.653 34.0205V43.2383C821.652 43.2383 821.65 43.2383 821.648 43.2383C818.256 43.2385 815.505 45.9889 815.505 49.3818C815.505 52.7748 818.256 55.5261 821.648 55.5264C821.65 55.5264 821.652 55.5255 821.653 55.5254V64.7422C821.652 64.7422 821.65 64.7422 821.648 64.7422C818.256 64.7424 815.505 67.4928 815.505 70.8857C815.505 74.2787 818.256 77.03 821.648 77.0303C821.65 77.0303 821.652 77.0294 821.653 77.0293V86.248C821.652 86.248 821.65 86.248 821.648 86.248C818.256 86.2483 815.505 88.9986 815.505 92.3916C815.505 95.7846 818.256 98.5349 821.648 98.5352C821.65 98.5352 821.652 98.5343 821.653 98.5342V107.748C821.652 107.748 821.65 107.748 821.648 107.748C818.256 107.748 815.505 110.499 815.505 113.892C815.505 117.285 818.256 120.036 821.648 120.036C821.65 120.036 821.652 120.035 821.653 120.035V132.323C802.994 132.325 787.868 147.453 787.868 166.114C787.868 184.776 802.994 199.904 821.653 199.905V210.659C821.652 210.659 821.65 210.659 821.648 210.659C818.256 210.659 815.505 213.41 815.505 216.803C815.505 220.196 818.256 222.947 821.648 222.947C821.65 222.947 821.652 222.946 821.653 222.946V232.163C821.652 232.163 821.65 232.163 821.648 232.163C818.256 232.163 815.505 234.914 815.505 238.307C815.505 241.7 818.256 244.451 821.648 244.451C821.65 244.451 821.652 244.45 821.653 244.45V253.665C821.652 253.665 821.65 253.665 821.648 253.665C818.256 253.665 815.505 256.417 815.505 259.81C815.505 263.202 818.256 265.953 821.648 265.953C821.65 265.953 821.652 265.952 821.653 265.952V275.171C821.652 275.171 821.65 275.171 821.648 275.171C818.256 275.171 815.505 277.922 815.505 281.314C815.505 284.707 818.256 287.459 821.648 287.459C821.65 287.459 821.652 287.458 821.653 287.458V298.208C802.994 298.21 787.868 313.338 787.868 331.999V332H634.287C634.295 331.745 634.299 331.489 634.299 331.232C634.299 317.236 622.953 305.89 608.958 305.89C608.695 305.89 608.433 305.894 608.172 305.902V24.793C608.433 24.8009 608.695 24.8076 608.958 24.8076C622.697 24.8075 633.882 13.8726 634.287 0.230469H787.868Z" fill="#191515"/>
<path d="M608 33V298" stroke="white" stroke-dasharray="23 23"/>
</svg>
