<svg width="822" height="333" viewBox="0 0 822 333" fill="none" xmlns="http://www.w3.org/2000/svg">
<path d="M608.183 332.368H0V240.19C0.51218 240.202 1.02608 240.209 1.54102 240.209C38.862 240.209 69.1162 209.951 69.1162 172.626C69.116 135.301 38.8618 105.044 1.54102 105.044C1.02609 105.044 0.512173 105.05 0 105.062V0.597656H608.183V332.368Z" fill="black"/>
<path d="M821.66 12.8848H818.07C811.284 12.8849 805.783 18.3866 805.783 25.1729C805.783 31.9591 811.284 37.4608 818.07 37.4609H821.66V48.2109H818.07C811.284 48.2111 805.783 53.7128 805.783 60.499C805.783 67.2853 811.284 72.7869 818.07 72.7871H821.66V83.542H818.07C811.284 83.5422 805.783 89.0429 805.783 95.8291C805.783 102.615 811.284 108.117 818.07 108.117H821.66V118.866H818.07C811.284 118.866 805.783 124.367 805.783 131.153C805.783 137.94 811.284 143.441 818.07 143.441H821.66V154.194H818.07C811.284 154.194 805.783 159.696 805.783 166.482C805.783 173.269 811.284 178.769 818.07 178.77H821.66V189.522H818.07C811.284 189.523 805.783 195.024 805.783 201.811C805.783 208.597 811.284 214.097 818.07 214.098H821.66V224.849H818.07C811.284 224.849 805.783 230.35 805.783 237.137C805.783 243.923 811.284 249.425 818.07 249.425H821.66V260.177H818.07C811.284 260.177 805.783 265.679 805.783 272.465C805.783 279.251 811.284 284.753 818.07 284.753H821.66V295.503H818.07C811.284 295.503 805.783 301.005 805.783 307.791C805.783 314.577 811.284 320.079 818.07 320.079H821.66V332.368H601.215V0.597656H821.66V12.8848Z" fill="black"/>
<path d="M608 33V298" stroke="white" stroke-dasharray="23 23"/>
</svg>
