<svg width="55" height="21" viewBox="0 0 55 21" fill="none" xmlns="http://www.w3.org/2000/svg">
<path d="M13.2686 0.68457C17.2947 0.684629 22.4493 2.08753 24.5234 2.78906H27.543V6.64551C26.835 6.59967 26.0907 6.89469 25.3467 7.63867C23.8826 9.10283 23.4253 20.3584 12.5361 20.3584C4.14067 20.3583 1.63974 12.4171 1.39355 7.91797C1.36917 7.47232 1.10085 7.0731 0.686523 6.90723C0.272115 6.74146 0.000114742 6.33987 0 5.89355V4.84277C0 3.63471 0.817568 2.578 1.99609 2.3125C5.19341 1.59223 10.0302 0.68457 13.2686 0.68457Z" fill="black"/>
<path d="M41.7314 0.68457C37.7053 0.684629 32.5507 2.08753 30.4766 2.78906H27.457V6.64551C28.165 6.59967 28.9093 6.89469 29.6533 7.63867C31.1174 9.10283 31.5747 20.3584 42.4639 20.3584C50.8593 20.3583 53.3603 12.4171 53.6064 7.91797C53.6308 7.47232 53.8991 7.0731 54.3135 6.90723C54.7279 6.74146 54.9999 6.33987 55 5.89355V4.84277C55 3.63471 54.1824 2.578 53.0039 2.3125C49.8066 1.59223 44.9698 0.68457 41.7314 0.68457Z" fill="black"/>
<path d="M12.5051 3.61182C7.30758 3.61182 4.54419 5.07591 3.81177 7.27204C3.07934 9.46817 4.81856 17.7952 13.0541 17.7952C21.2896 17.7952 22.6407 8.64462 21.9302 6.6315C21.2197 4.61838 19.917 3.61182 12.5051 3.61182Z" fill="#282727"/>
<mask id="mask0_1634_4375" style="mask-type:alpha" maskUnits="userSpaceOnUse" x="3" y="3" width="20" height="15">
<path d="M12.5051 3.61182C7.30758 3.61182 4.54419 5.07591 3.81177 7.27204C3.07934 9.46817 4.81856 17.7952 13.0541 17.7952C21.2896 17.7952 22.6407 8.64462 21.9302 6.6315C21.2197 4.61838 19.917 3.61182 12.5051 3.61182Z" fill="#282727"/>
</mask>
<g mask="url(#mask0_1634_4375)">
<path d="M20.2852 2.42236L22.0611 3.92313L11.9854 19.6264L10.2095 18.1256L20.2852 2.42236Z" fill="#4A4A4A"/>
<rect x="23.0684" y="3.42822" width="0.915056" height="18.6578" transform="rotate(32.6854 23.0684 3.42822)" fill="#4A4A4A"/>
</g>
<path d="M42.493 3.61182C47.6905 3.61182 50.4539 5.07591 51.1863 7.27204C51.9187 9.46817 50.1795 17.7952 41.944 17.7952C33.7085 17.7952 32.3574 8.64462 33.0679 6.6315C33.7784 4.61838 35.081 3.61182 42.493 3.61182Z" fill="#282727"/>
<mask id="mask1_1634_4375" style="mask-type:alpha" maskUnits="userSpaceOnUse" x="32" y="3" width="20" height="15">
<path d="M42.4939 3.61182C47.6914 3.61182 50.4548 5.07591 51.1873 7.27204C51.9197 9.46817 50.1805 17.7952 41.945 17.7952C33.7095 17.7952 32.3583 8.64462 33.0689 6.6315C33.7794 4.61838 35.082 3.61182 42.4939 3.61182Z" fill="#282727"/>
</mask>
<g mask="url(#mask1_1634_4375)">
<path d="M49.5068 2.40088L51.3035 3.92242L41.2279 19.6257L39.4312 18.1041L49.5068 2.40088Z" fill="#4A4A4A"/>
<rect x="52.3115" y="3.42822" width="0.915056" height="18.6578" transform="rotate(32.6854 52.3115 3.42822)" fill="#4A4A4A"/>
</g>
</svg>
