<svg width="45" height="46" viewBox="0 0 45 46" fill="none" xmlns="http://www.w3.org/2000/svg">
<circle cx="22.5" cy="23.0322" r="22.501" fill="#FFE100"/>
<path d="M39.4055 24.8159C39.9804 24.8159 40.4451 25.281 40.3892 25.8531C39.7849 32.0338 33.9175 41.0508 22.2374 41.0508C10.5575 41.0508 5.15522 32.0341 4.60142 25.8534C4.55012 25.2809 5.01448 24.8159 5.58935 24.8159C8.21582 24.8159 15.4397 24.8159 22.6275 24.8159C29.7896 24.8159 36.823 24.8159 39.4055 24.8159Z" fill="black"/>
<path d="M31.8979 13.0642L27.0078 16.2429C26.6289 16.4891 26.6289 17.0439 27.0078 17.2901L31.8979 20.4687" stroke="black" stroke-width="1.45727" stroke-linecap="round" stroke-linejoin="round"/>
<path d="M13.0708 13.0642L17.961 16.2429C18.3399 16.4891 18.3399 17.0439 17.961 17.2901L13.0708 20.4687" stroke="black" stroke-width="1.45727" stroke-linecap="round" stroke-linejoin="round"/>
<mask id="mask0_1634_4437" style="mask-type:alpha" maskUnits="userSpaceOnUse" x="4" y="24" width="37" height="18">
<path d="M39.4114 24.8159C39.9863 24.8159 40.451 25.281 40.3951 25.8531C39.7908 32.0338 33.9234 41.0508 22.2433 41.0508C10.5634 41.0508 5.16108 32.0341 4.60728 25.8534C4.55598 25.2809 5.02034 24.8159 5.59521 24.8159C8.22168 24.8159 15.4455 24.8159 22.6334 24.8159C29.7954 24.8159 36.8289 24.8159 39.4114 24.8159Z" fill="black"/>
</mask>
<g mask="url(#mask0_1634_4437)">
<rect x="3.1377" y="24.7417" width="37.188" height="3.38073" fill="white"/>
</g>
<mask id="mask1_1634_4437" style="mask-type:alpha" maskUnits="userSpaceOnUse" x="4" y="24" width="37" height="18">
<path d="M39.4114 24.8159C39.9863 24.8159 40.451 25.281 40.3951 25.8531C39.7908 32.0338 33.9234 41.0508 22.2433 41.0508C10.5634 41.0508 5.16108 32.0341 4.60728 25.8534C4.55598 25.2809 5.02034 24.8159 5.59521 24.8159C8.22168 24.8159 15.4455 24.8159 22.6334 24.8159C29.7954 24.8159 36.8289 24.8159 39.4114 24.8159Z" fill="black"/>
</mask>
<g mask="url(#mask1_1634_4437)">
<path d="M5.59537 48.8145C5.0205 48.8145 4.55581 48.3495 4.61078 47.7773C5.21002 41.5397 11.0774 32.431 22.7635 32.431C34.4494 32.431 39.8513 41.5394 40.4004 47.777C40.4508 48.3496 39.9865 48.8145 39.4116 48.8145C36.7851 48.8145 29.5613 48.8145 22.3734 48.8145C15.2114 48.8145 8.17788 48.8145 5.59537 48.8145Z" fill="#FF0000"/>
</g>
<path d="M33.5856 21.5947C33.9738 21.5995 36.4476 21.6837 37.8671 23.0719C38.2898 23.4857 39.064 24.7447 37.9358 25.8983L37.9337 25.8963C36.8115 27.0138 35.5514 26.2763 35.1317 25.866C33.7134 24.4789 33.574 22.0102 33.5604 21.6192L33.5338 21.5932C33.5345 21.5932 33.5428 21.5936 33.558 21.5937C33.5576 21.5776 33.557 21.5685 33.557 21.5667L33.5856 21.5947Z" fill="#88C6FC"/>
</svg>
